<?xml version="1.0" encoding="UTF-8"?>
<svg width="177.16" height="177.16" fill-rule="evenodd" viewBox="0 0 141.732 141.732" xmlns="http://www.w3.org/2000/svg">
 <path d="m80.32 138.92c-37.679 5.507-72.856-20.588-78.363-58.268-5.4894-37.557 20.711-72.874 58.39-78.381 37.557-5.4895 72.769 20.851 78.258 58.408 5.508 37.679-20.728 72.752-58.285 78.241z" fill="#ef8020"/>
 <path d="m79.523 137.62c-37.202 5.437-71.934-20.328-77.371-57.53-5.4199-37.082 20.449-71.951 57.651-77.389 37.082-5.42 71.848 20.587 77.268 57.669 5.438 37.202-20.466 71.83-57.548 77.25z" fill="#ea7823"/>
 <path d="m78.727 136.33c-36.725 5.368-71.011-20.067-76.379-56.792-5.3504-36.606 20.186-71.029 56.912-76.396 36.606-5.3505 70.927 20.323 76.278 56.929 5.367 36.725-20.204 70.909-56.81 76.259z" fill="#e47125"/>
 <path d="m77.93 135.04c-36.248 5.298-70.089-19.807-75.387-56.055-5.2809-36.131 19.924-70.106 56.172-75.404 36.131-5.2809 70.005 20.059 75.286 56.19 5.298 36.248-19.941 69.988-56.072 75.269z" fill="#df6927"/>
 <path d="m77.134 133.75c-35.771 5.229-69.166-19.545-74.395-55.316-5.2114-35.655 19.662-69.183 55.433-74.412 35.655-5.2114 69.084 19.795 74.296 55.45 5.228 35.771-19.679 69.067-55.334 74.278z" fill="#d96229"/>
 <path d="m76.337 132.46c-35.294 5.159-68.244-19.285-73.403-54.579-5.1419-35.18 19.4-68.261 54.694-73.419 35.18-5.1419 68.162 19.531 73.304 54.711 5.159 35.294-19.416 68.146-54.596 73.288z" fill="#d45b2b"/>
 <path d="m75.541 131.16c-34.817 5.09-67.322-19.024-72.41-53.841-5.0724-34.704 19.137-67.338 53.955-72.427 34.704-5.0725 67.241 19.267 72.314 53.971 5.089 34.817-19.154 67.225-53.858 72.297z" fill="#ce532e"/>
 <path d="m74.744 129.87c-34.34 5.019-66.399-18.764-71.418-53.104-5.003-34.229 18.875-66.416 53.215-71.435 34.229-5.003 66.32 19.003 71.323 53.232 5.02 34.34-18.891 66.304-53.12 71.306z" fill="#c84c30"/>
 <path d="m73.948 128.58c-33.863 4.949-65.477-18.503-70.426-52.366-4.9334-33.753 18.613-65.493 52.476-70.442 33.753-4.9334 65.399 18.739 70.332 52.492 4.95 33.863-18.629 65.382-52.382 70.316z" fill="#c34432"/>
 <path d="m73.151 127.28c-33.386 4.88-64.554-18.242-69.434-51.628-4.864-33.278 18.351-64.57 51.737-69.45 33.278-4.864 64.478 18.475 69.342 51.753 4.879 33.386-18.367 64.461-51.645 69.325z" fill="#bd3d34"/>
 <path d="m72.355 125.99c-32.909 4.81-63.632-17.982-68.442-50.891-4.7945-32.802 18.089-63.648 50.998-68.458 32.802-4.7944 63.557 18.211 68.351 51.013 4.81 32.909-18.104 63.54-50.906 68.335z" fill="#b83637"/>
 <path d="m76.785 119.13c-29.178 7.339-58.997-10.361-66.438-39.524-7.4267-29.067 10.285-58.902 39.463-66.241 29.082-7.3244 58.93 10.568 66.356 39.636 7.441 29.163-10.299 58.806-39.381 66.13z" fill="#b83637"/>
 <path d="m81.215 112.27c-25.447 9.867-54.363-2.742-64.434-28.159-10.059-25.332 2.4818-54.156 27.929-64.024 25.362-9.8544 54.303 2.9254 64.361 28.258 10.072 25.417-2.494 54.071-27.856 63.925z" fill="#b83637"/>
 <path d="m85.645 105.41c-21.717 12.396-49.729 4.878-62.431-16.794-12.691-21.597-5.3216-49.411 16.395-61.807 21.642-12.384 49.676-4.7173 62.367 16.88 12.703 21.672 5.311 49.336-16.331 61.72z" fill="#b83637"/>
 <path d="m90.075 98.547c-17.986 14.925-45.094 12.499-60.427-5.4272-15.324-17.862-13.125-44.665 4.8607-59.59 17.922-14.914 45.049-12.36 60.372 5.5021 15.332 17.926 13.116 44.601-4.8061 59.515z" fill="#b83637"/>
 <path d="m94.506 91.686c-14.255 17.453-40.46 20.119-58.423 5.9385-17.956-14.127-20.928-39.92-6.6734-57.373 14.202-17.444 40.422-20.003 58.378-5.8759 17.963 14.18 20.92 39.866 6.7189 57.31z" fill="#b83637"/>
 <path d="m98.936 84.824c-10.524 19.982-35.825 27.739-56.42 17.305-20.588-10.392-28.732-35.174-18.208-55.156 10.482-19.974 35.795-27.646 56.383-17.254 20.594 10.435 28.725 35.131 18.244 55.105z" fill="#b83637"/>
 <path d="m103.37 77.963c-6.7935 22.511-31.191 35.359-54.416 28.67-23.22-6.6568-36.535-30.428-29.742-52.939 6.7616-22.504 31.168-35.289 54.389-28.632 23.225 6.6888 36.53 30.396 29.769 52.9z" fill="#b83637"/>
 <path d="m107.8 71.102c-3.063 25.039-26.556 42.98-52.412 40.036-25.853-2.921-44.339-25.682-41.276-50.721 3.0416-25.034 26.542-42.931 52.394-40.01 25.856 2.9433 44.335 25.661 41.294 50.695z" fill="#b83637"/>
 <path d="m112.23 64.24c0.668 27.568-21.922 50.599-50.408 51.402-28.485 0.813-52.142-20.937-52.81-48.505-0.67856-27.564 21.915-50.574 50.4-51.387 28.487-0.8026 52.141 20.926 52.819 48.49z" fill="#b83637"/>
 <path d="m116.66 57.379c4.399 30.096-17.287 58.219-48.404 62.767s-59.946-16.191-64.344-46.288c-4.3986-30.094 17.288-58.217 48.405-62.765s59.946 16.191 64.344 46.285z" fill="#b83637"/>
 <path d="m114.81 56.711c4.281 29.289-16.835 56.659-47.132 61.087s-58.363-15.753-62.644-45.042 16.836-56.656 47.132-61.084 58.363 15.753 62.644 45.039z" fill="#b93836"/>
 <path d="m112.97 56.044c4.163 28.481-16.383 55.098-45.86 59.406s-56.78-15.315-60.943-43.796 16.383-55.096 45.859-59.404 56.78 15.314 60.944 43.793z" fill="#bb3a35"/>
 <path d="m111.13 55.376c4.045 27.673-15.93 53.537-44.586 57.726s-55.198-14.876-59.243-42.55 15.931-53.535 44.587-57.723 55.198 14.876 59.242 42.547z" fill="#bd3d34"/>
 <path d="m109.29 54.709c3.927 26.866-15.479 51.976-43.314 56.045s-53.615-14.438-57.542-41.304c-3.9265-26.864 15.479-51.974 43.314-56.043s53.616 14.438 57.542 41.301z" fill="#bf3f34"/>
 <path d="m107.44 54.041c3.809 26.058-15.027 50.416-42.041 54.365s-52.033-14-55.842-40.058 15.027-50.414 42.041-54.362 52.033 13.999 55.842 40.055z" fill="#c14233"/>
 <path d="m105.6 53.374c3.69 25.25-14.575 48.855-40.769 52.683s-50.45-13.561-54.141-38.811 14.575-48.853 40.768-52.682 50.45 13.561 54.142 38.809z" fill="#c34432"/>
 <path d="m103.76 52.706c3.573 24.443-14.122 47.295-39.495 51.003s-48.868-13.122-52.441-37.565 14.122-47.292 39.496-51.001 48.868 13.122 52.44 37.563z" fill="#c54731"/>
 <path d="m101.92 52.039c3.454 23.635-13.67 45.733-38.223 49.322s-47.286-12.684-50.74-36.319 13.67-45.732 38.223-49.32 47.286 12.684 50.74 36.317z" fill="#c74931"/>
 <path d="m100.08 51.372c3.336 22.827-13.218 44.173-36.95 47.641s-45.703-12.246-49.039-35.073 13.218-44.171 36.95-47.64 45.703 12.246 49.04 35.071z" fill="#c84c30"/>
 <path d="m98.233 50.704c3.2187 22.019-12.766 42.612-35.677 45.961s-44.12-11.808-47.339-33.827 12.766-42.61 35.677-45.959 44.121 11.807 47.339 33.825z" fill="#ca4e2f"/>
 <path d="m96.391 50.037c3.1004 21.212-12.314 41.051-34.404 44.28s-42.538-11.369-45.638-32.581 12.314-41.05 34.404-44.279 42.538 11.369 45.638 32.579z" fill="#cc512e"/>
 <path d="m94.549 49.369c2.9823 20.404-11.861 39.49-33.132 42.599s-40.956-10.931-43.938-31.335 11.862-39.489 33.132-42.598 40.956 10.931 43.938 31.333z" fill="#ce532e"/>
 <path d="m92.706 48.702c2.8643 19.596-11.409 37.93-31.859 40.919s-39.373-10.492-42.237-30.089c-2.864-19.595 11.409-37.928 31.859-40.917s39.373 10.492 42.237 30.087z" fill="#d0562d"/>
 <path d="m90.864 48.034c2.7463 18.788-10.957 36.369-30.586 39.238s-37.791-10.054-40.537-28.842 10.957-36.368 30.586-39.237 37.791 10.054 40.537 28.841z" fill="#d2582c"/>
 <path d="m89.022 47.367c2.6282 17.981-10.505 34.808-29.313 37.557s-36.208-9.6155-38.836-27.596 10.505-34.807 29.313-37.556 36.208 9.6155 38.836 27.595z" fill="#d45b2b"/>
 <path d="m87.179 46.699c2.5101 17.173-10.053 33.248-28.04 35.877s-34.626-9.1771-37.136-26.35 10.053-33.246 28.04-35.875 34.626 9.1771 37.136 26.349z" fill="#d55d2b"/>
 <path d="m85.337 46.032c2.3921 16.366-9.6005 31.687-26.768 34.196s-33.043-8.7388-35.435-25.104c-2.3919-16.364 9.6006-31.686 26.768-34.195s33.043 8.7388 35.435 25.103z" fill="#d75f2a"/>
 <path d="m83.495 45.364c2.274 15.558-9.1484 30.126-25.495 32.515s-31.46-8.3004-33.734-23.858 9.1485-30.125 25.495-32.514 31.461 8.3004 33.734 23.857z" fill="#d96229"/>
 <path d="m81.652 44.697c2.1559 14.75-8.6962 28.565-24.222 30.835s-29.878-7.8619-32.034-22.612 8.6963-28.564 24.222-30.834 29.878 7.8619 32.034 22.611z" fill="#db6429"/>
 <path d="m79.81 44.029c2.0378 13.942-8.244 27.004-22.949 29.154s-28.296-7.4236-30.333-21.366 8.2441-27.004 22.949-29.153 28.296 7.4236 30.333 21.365z" fill="#dd6728"/>
 <path d="m77.968 43.362c1.9198 13.135-7.7919 25.444-21.677 27.473s-26.713-6.9852-28.633-20.12 7.792-25.443 21.677-27.472 26.713 6.9852 28.633 20.119z" fill="#df6927"/>
 <path d="m76.126 42.694c1.8018 12.327-7.3396 23.883-20.404 25.793s-25.131-6.5469-26.932-18.874 7.3398-23.882 20.404-25.792 25.131 6.5468 26.932 18.873z" fill="#e16c26"/>
 <path d="m74.283 42.027c1.6837 11.519-6.8876 22.322-19.131 24.112s-23.548-6.1084-25.232-17.628 6.8876-22.322 19.131-24.111 23.548 6.1084 25.232 17.627z" fill="#e26e26"/>
 <path d="m72.441 41.36c1.5657 10.712-6.4353 20.762-17.858 22.431s-21.966-5.6701-23.531-16.382 6.4354-20.761 17.858-22.431 21.966 5.6701 23.531 16.381z" fill="#e47125"/>
 <path d="m70.599 40.692c1.4475 9.9038-5.9832 19.201-16.586 20.75s-20.383-5.2317-21.831-15.135 5.9832-19.201 16.586-20.75 20.383 5.2317 21.831 15.135z" fill="#e67324"/>
 <path d="m68.756 40.024c1.3294 9.0962-5.5311 17.64-15.313 19.07s-18.801-4.7933-20.13-13.889 5.531-17.64 15.313-19.07 18.801 4.7933 20.13 13.889z" fill="#e87623"/>
 <path d="m66.914 39.357c1.2115 8.2884-5.0788 16.08-14.04 17.389s-17.218-4.355-18.43-12.643 5.0789-16.079 14.04-17.389 17.218 4.355 18.43 12.643z" fill="#ea7823"/>
 <path d="m65.072 38.69c1.0934 7.4807-4.6266 14.519-12.767 15.708s-15.636-3.9165-16.729-11.397 4.6266-14.518 12.767-15.708 15.636 3.9165 16.729 11.397z" fill="#ec7b22"/>
 <path d="m63.229 38.022c0.9754 6.6729-4.1745 12.958-11.494 14.028s-14.053-3.4782-15.028-10.151 4.1745-12.958 11.494-14.028 14.053 3.4782 15.028 10.151z" fill="#ee7d21"/>
 <path d="m61.387 37.355c0.8573 5.8653-3.7223 11.397-10.222 12.347s-12.471-3.0397-13.328-8.905 3.7223-11.397 10.222-12.347 12.471 3.0397 13.328 8.905z" fill="#ef8020"/>
 <path d="m128.08 104.82c-14.474-32.182-41.994-67.008-87.606-74.8l-0.1715-0.0202c-2.9414 3.4852-5.4811 6.9972-7.3279 10.325 29.815 8.4954 20.778 59.782 61.201 92.953 13.998-5.282 26.09-15.211 33.905-28.458zm-1.035-69.379c-33.712-26.329-44.922-10.961-74.542-17.867-3.1067 2.7646-6.1947 5.7674-9.046 8.8548 46.153 9.0241 73.808 45.263 87.088 73.808 1.721-3.5232 3.152-7.2476 4.257-11.152 5.348-18.903 1.956-38.224-7.758-53.644zm-55.784-31.102c-3.8897 1.6738-9.3858 5.3726-15.107 10.106 20.427 4.6197 33.308-6.4672 61.928 9.6863-7.824-7.9346-17.748-14.01-29.231-17.259-5.8681-1.6601-11.77-2.4853-17.589-2.5335zm-28.246 6.0625c2.1247 0.7781 5.0874 1.8119 8.2002 2.7337 3.9026-3.3084 7.7147-6.1047 11.083-8.2541-6.7141 0.86118-13.215 2.7402-19.283 5.5204zm-20.883 15c5.4727-0.4397 10.927-0.2783 16.343 0.334 2.9397-3.4181 6.0707-6.6036 9.2121-9.4865-3.7341-1.1452-7.5558-2.5181-9.7771-3.2534-5.8117 3.3055-11.148 7.479-15.778 12.406zm-13.955 22.66c3.7938-3.8417 11.85-9.8587 20.58-8.6617 1.9292-3.4253 4.183-6.7439 6.6366-9.9004-5.1613-0.4292-10.92-0.5371-17.16 0.4433-4.1946 5.361-7.6196 11.441-10.057 18.119zm22.802 76.351c-18.231-30.575-13.954-61.36-4.1032-81.424-8.3538-0.3776-16.9 7.5602-21.456 14.854-5.1894 25.73 5.3448 51.526 25.559 66.57zm58.353 10.486c-40.39-36.833-31.061-83.244-58.107-91.088-13.812 29.423-10.274 57.096 6.5794 85.055 4.5651 2.592 9.511 4.681 14.786 6.173 12.48 3.531 25.141 3.252 36.742-0.14zm-86.638-83.315c-10.646 37.631 11.257 76.818 48.888 87.464s76.818-11.257 87.464-48.888-11.257-76.817-48.888-87.464-76.817 11.257-87.464 48.888" fill="#582922"/>
</svg>
